<mxfile host="www.draw.io" modified="2020-01-01T13:52:18.776Z" agent="Mozilla/5.0 (Windows NT 10.0; Win64; x64) AppleWebKit/537.36 (KHTML, like Gecko) Chrome/79.0.3945.88 Safari/537.36" etag="PIIf5Y6TTZzZIgwak2iu" version="12.4.8" type="github">
  <diagram id="DMpSN4s2jag4jquuL94w" name="Page-1">
    <mxGraphModel dx="1422" dy="794" grid="1" gridSize="10" guides="1" tooltips="1" connect="1" arrows="1" fold="1" page="1" pageScale="1" pageWidth="850" pageHeight="1100" math="0" shadow="0">
      <root>
        <mxCell id="0"/>
        <mxCell id="1" parent="0"/>
        <mxCell id="TiP5tz2ImqTwax-yuWbM-41" value="" style="group" parent="1" vertex="1" connectable="0">
          <mxGeometry x="480" y="450" width="120" height="60" as="geometry"/>
        </mxCell>
        <mxCell id="TiP5tz2ImqTwax-yuWbM-31" value="&lt;font style=&quot;font-size: 16px&quot;&gt;[5,8]&lt;br&gt;&lt;br&gt;8&lt;br&gt;&lt;/font&gt;" style="rounded=0;whiteSpace=wrap;html=1;fillColor=#E51400;fontColor=#FFFFFF;" parent="TiP5tz2ImqTwax-yuWbM-41" vertex="1">
          <mxGeometry width="120" height="60" as="geometry"/>
        </mxCell>
        <mxCell id="TiP5tz2ImqTwax-yuWbM-33" value="" style="endArrow=none;html=1;strokeColor=#FFFFFF;fontColor=#FFFFFF;entryX=1;entryY=0.5;entryDx=0;entryDy=0;" parent="TiP5tz2ImqTwax-yuWbM-41" target="TiP5tz2ImqTwax-yuWbM-31" edge="1">
          <mxGeometry width="50" height="50" relative="1" as="geometry">
            <mxPoint y="30" as="sourcePoint"/>
            <mxPoint x="-180" y="-20" as="targetPoint"/>
          </mxGeometry>
        </mxCell>
        <mxCell id="TiP5tz2ImqTwax-yuWbM-42" value="" style="group" parent="1" vertex="1" connectable="0">
          <mxGeometry x="410" y="330" width="120" height="60" as="geometry"/>
        </mxCell>
        <mxCell id="TiP5tz2ImqTwax-yuWbM-40" value="" style="group" parent="TiP5tz2ImqTwax-yuWbM-42" vertex="1" connectable="0">
          <mxGeometry width="120" height="60" as="geometry"/>
        </mxCell>
        <mxCell id="TiP5tz2ImqTwax-yuWbM-32" value="&lt;font style=&quot;font-size: 16px&quot;&gt;[0,3]&lt;br&gt;&lt;br&gt;8&lt;br&gt;&lt;/font&gt;" style="rounded=0;whiteSpace=wrap;html=1;fillColor=#000000;fontColor=#FFFFFF;" parent="TiP5tz2ImqTwax-yuWbM-40" vertex="1">
          <mxGeometry width="120" height="60" as="geometry"/>
        </mxCell>
        <mxCell id="TiP5tz2ImqTwax-yuWbM-34" value="" style="endArrow=none;html=1;strokeColor=#FFFFFF;fontColor=#FFFFFF;exitX=0;exitY=0.5;exitDx=0;exitDy=0;entryX=1;entryY=0.5;entryDx=0;entryDy=0;" parent="TiP5tz2ImqTwax-yuWbM-40" source="TiP5tz2ImqTwax-yuWbM-32" target="TiP5tz2ImqTwax-yuWbM-32" edge="1">
          <mxGeometry width="50" height="50" relative="1" as="geometry">
            <mxPoint x="-230" y="20" as="sourcePoint"/>
            <mxPoint x="-180" y="-30" as="targetPoint"/>
          </mxGeometry>
        </mxCell>
        <mxCell id="TiP5tz2ImqTwax-yuWbM-48" value="" style="group" parent="1" vertex="1" connectable="0">
          <mxGeometry x="400" y="70" width="120" height="60" as="geometry"/>
        </mxCell>
        <mxCell id="TiP5tz2ImqTwax-yuWbM-49" value="" style="group" parent="TiP5tz2ImqTwax-yuWbM-48" vertex="1" connectable="0">
          <mxGeometry width="120" height="60" as="geometry"/>
        </mxCell>
        <mxCell id="TiP5tz2ImqTwax-yuWbM-50" value="&lt;font style=&quot;font-size: 16px&quot;&gt;[0,3]&lt;br&gt;&lt;br&gt;3&lt;br&gt;&lt;/font&gt;" style="rounded=0;whiteSpace=wrap;html=1;fillColor=#000000;fontColor=#FFFFFF;" parent="TiP5tz2ImqTwax-yuWbM-49" vertex="1">
          <mxGeometry width="120" height="60" as="geometry"/>
        </mxCell>
        <mxCell id="TiP5tz2ImqTwax-yuWbM-51" value="" style="endArrow=none;html=1;strokeColor=#FFFFFF;fontColor=#FFFFFF;exitX=0;exitY=0.5;exitDx=0;exitDy=0;entryX=1;entryY=0.5;entryDx=0;entryDy=0;" parent="TiP5tz2ImqTwax-yuWbM-49" source="TiP5tz2ImqTwax-yuWbM-50" target="TiP5tz2ImqTwax-yuWbM-50" edge="1">
          <mxGeometry width="50" height="50" relative="1" as="geometry">
            <mxPoint x="-230" y="20" as="sourcePoint"/>
            <mxPoint x="-180" y="-30" as="targetPoint"/>
          </mxGeometry>
        </mxCell>
        <mxCell id="TiP5tz2ImqTwax-yuWbM-52" value="" style="endArrow=classic;html=1;strokeColor=#000000;fontColor=#FFFFFF;exitX=0.75;exitY=1;exitDx=0;exitDy=0;entryX=0.5;entryY=0;entryDx=0;entryDy=0;strokeWidth=4;" parent="1" source="TiP5tz2ImqTwax-yuWbM-32" target="TiP5tz2ImqTwax-yuWbM-31" edge="1">
          <mxGeometry width="50" height="50" relative="1" as="geometry">
            <mxPoint x="710" y="400" as="sourcePoint"/>
            <mxPoint x="760" y="350" as="targetPoint"/>
          </mxGeometry>
        </mxCell>
        <mxCell id="TiP5tz2ImqTwax-yuWbM-68" value="" style="group" parent="1" vertex="1" connectable="0">
          <mxGeometry x="155" y="840" width="120" height="60" as="geometry"/>
        </mxCell>
        <mxCell id="TiP5tz2ImqTwax-yuWbM-69" value="&lt;font style=&quot;font-size: 16px&quot;&gt;[5,8]&lt;br&gt;&lt;br&gt;10&lt;br&gt;&lt;/font&gt;" style="rounded=0;whiteSpace=wrap;html=1;fillColor=#E51400;fontColor=#FFFFFF;" parent="TiP5tz2ImqTwax-yuWbM-68" vertex="1">
          <mxGeometry width="120" height="60" as="geometry"/>
        </mxCell>
        <mxCell id="TiP5tz2ImqTwax-yuWbM-70" value="" style="endArrow=none;html=1;strokeColor=#FFFFFF;fontColor=#FFFFFF;entryX=1;entryY=0.5;entryDx=0;entryDy=0;" parent="TiP5tz2ImqTwax-yuWbM-68" target="TiP5tz2ImqTwax-yuWbM-69" edge="1">
          <mxGeometry width="50" height="50" relative="1" as="geometry">
            <mxPoint y="30" as="sourcePoint"/>
            <mxPoint x="-180" y="-20" as="targetPoint"/>
          </mxGeometry>
        </mxCell>
        <mxCell id="TiP5tz2ImqTwax-yuWbM-71" value="" style="group" parent="1" vertex="1" connectable="0">
          <mxGeometry x="85" y="720" width="120" height="60" as="geometry"/>
        </mxCell>
        <mxCell id="TiP5tz2ImqTwax-yuWbM-72" value="" style="group" parent="TiP5tz2ImqTwax-yuWbM-71" vertex="1" connectable="0">
          <mxGeometry width="120" height="60" as="geometry"/>
        </mxCell>
        <mxCell id="TiP5tz2ImqTwax-yuWbM-73" value="&lt;font style=&quot;font-size: 16px&quot;&gt;[0,3]&lt;br&gt;&lt;br&gt;10&lt;br&gt;&lt;/font&gt;" style="rounded=0;whiteSpace=wrap;html=1;fillColor=#000000;fontColor=#FFFFFF;" parent="TiP5tz2ImqTwax-yuWbM-72" vertex="1">
          <mxGeometry width="120" height="60" as="geometry"/>
        </mxCell>
        <mxCell id="TiP5tz2ImqTwax-yuWbM-74" value="" style="endArrow=none;html=1;strokeColor=#FFFFFF;fontColor=#FFFFFF;exitX=0;exitY=0.5;exitDx=0;exitDy=0;entryX=1;entryY=0.5;entryDx=0;entryDy=0;" parent="TiP5tz2ImqTwax-yuWbM-72" source="TiP5tz2ImqTwax-yuWbM-73" target="TiP5tz2ImqTwax-yuWbM-73" edge="1">
          <mxGeometry width="50" height="50" relative="1" as="geometry">
            <mxPoint x="-230" y="20" as="sourcePoint"/>
            <mxPoint x="-180" y="-30" as="targetPoint"/>
          </mxGeometry>
        </mxCell>
        <mxCell id="TiP5tz2ImqTwax-yuWbM-75" value="" style="endArrow=classic;html=1;strokeColor=#000000;fontColor=#FFFFFF;exitX=0.75;exitY=1;exitDx=0;exitDy=0;entryX=0.5;entryY=0;entryDx=0;entryDy=0;strokeWidth=4;" parent="1" source="TiP5tz2ImqTwax-yuWbM-73" target="TiP5tz2ImqTwax-yuWbM-69" edge="1">
          <mxGeometry width="50" height="50" relative="1" as="geometry">
            <mxPoint x="385" y="790" as="sourcePoint"/>
            <mxPoint x="435" y="740" as="targetPoint"/>
          </mxGeometry>
        </mxCell>
        <mxCell id="TiP5tz2ImqTwax-yuWbM-77" value="" style="group" parent="1" vertex="1" connectable="0">
          <mxGeometry x="235" y="960" width="120" height="60" as="geometry"/>
        </mxCell>
        <mxCell id="TiP5tz2ImqTwax-yuWbM-78" value="&lt;font style=&quot;font-size: 16px&quot;&gt;[6,10]&lt;br&gt;&lt;br&gt;10&lt;br&gt;&lt;/font&gt;" style="rounded=0;whiteSpace=wrap;html=1;fillColor=#E51400;fontColor=#FFFFFF;" parent="TiP5tz2ImqTwax-yuWbM-77" vertex="1">
          <mxGeometry width="120" height="60" as="geometry"/>
        </mxCell>
        <mxCell id="TiP5tz2ImqTwax-yuWbM-79" value="" style="endArrow=none;html=1;strokeColor=#FFFFFF;fontColor=#FFFFFF;entryX=1;entryY=0.5;entryDx=0;entryDy=0;" parent="TiP5tz2ImqTwax-yuWbM-77" target="TiP5tz2ImqTwax-yuWbM-78" edge="1">
          <mxGeometry width="50" height="50" relative="1" as="geometry">
            <mxPoint y="30" as="sourcePoint"/>
            <mxPoint x="-180" y="-20" as="targetPoint"/>
          </mxGeometry>
        </mxCell>
        <mxCell id="TiP5tz2ImqTwax-yuWbM-80" value="" style="endArrow=classic;html=1;strokeColor=#000000;fontColor=#FFFFFF;exitX=0.75;exitY=1;exitDx=0;exitDy=0;entryX=0.5;entryY=0;entryDx=0;entryDy=0;strokeWidth=4;" parent="1" source="TiP5tz2ImqTwax-yuWbM-69" target="TiP5tz2ImqTwax-yuWbM-78" edge="1">
          <mxGeometry width="50" height="50" relative="1" as="geometry">
            <mxPoint x="375" y="900" as="sourcePoint"/>
            <mxPoint x="415" y="960" as="targetPoint"/>
          </mxGeometry>
        </mxCell>
        <mxCell id="TiP5tz2ImqTwax-yuWbM-81" value="" style="group" parent="1" vertex="1" connectable="0">
          <mxGeometry x="685" y="830" width="120" height="60" as="geometry"/>
        </mxCell>
        <mxCell id="TiP5tz2ImqTwax-yuWbM-82" value="&lt;font style=&quot;font-size: 16px&quot;&gt;[6,10]&lt;br&gt;&lt;br&gt;10&lt;br&gt;&lt;/font&gt;" style="rounded=0;whiteSpace=wrap;html=1;fillColor=#E51400;fontColor=#FFFFFF;" parent="TiP5tz2ImqTwax-yuWbM-81" vertex="1">
          <mxGeometry width="120" height="60" as="geometry"/>
        </mxCell>
        <mxCell id="TiP5tz2ImqTwax-yuWbM-83" value="" style="endArrow=none;html=1;strokeColor=#FFFFFF;fontColor=#FFFFFF;entryX=1;entryY=0.5;entryDx=0;entryDy=0;" parent="TiP5tz2ImqTwax-yuWbM-81" target="TiP5tz2ImqTwax-yuWbM-82" edge="1">
          <mxGeometry width="50" height="50" relative="1" as="geometry">
            <mxPoint y="30" as="sourcePoint"/>
            <mxPoint x="-180" y="-20" as="targetPoint"/>
          </mxGeometry>
        </mxCell>
        <mxCell id="TiP5tz2ImqTwax-yuWbM-84" value="" style="group" parent="1" vertex="1" connectable="0">
          <mxGeometry x="615" y="710" width="120" height="60" as="geometry"/>
        </mxCell>
        <mxCell id="TiP5tz2ImqTwax-yuWbM-85" value="" style="group" parent="TiP5tz2ImqTwax-yuWbM-84" vertex="1" connectable="0">
          <mxGeometry width="120" height="60" as="geometry"/>
        </mxCell>
        <mxCell id="TiP5tz2ImqTwax-yuWbM-86" value="&lt;font style=&quot;font-size: 16px&quot;&gt;[5,8]&lt;br&gt;&lt;br&gt;10&lt;br&gt;&lt;/font&gt;" style="rounded=0;whiteSpace=wrap;html=1;fillColor=#000000;fontColor=#FFFFFF;" parent="TiP5tz2ImqTwax-yuWbM-85" vertex="1">
          <mxGeometry width="120" height="60" as="geometry"/>
        </mxCell>
        <mxCell id="TiP5tz2ImqTwax-yuWbM-87" value="" style="endArrow=none;html=1;strokeColor=#FFFFFF;fontColor=#FFFFFF;exitX=0;exitY=0.5;exitDx=0;exitDy=0;entryX=1;entryY=0.5;entryDx=0;entryDy=0;" parent="TiP5tz2ImqTwax-yuWbM-85" source="TiP5tz2ImqTwax-yuWbM-86" target="TiP5tz2ImqTwax-yuWbM-86" edge="1">
          <mxGeometry width="50" height="50" relative="1" as="geometry">
            <mxPoint x="-230" y="20" as="sourcePoint"/>
            <mxPoint x="-180" y="-30" as="targetPoint"/>
          </mxGeometry>
        </mxCell>
        <mxCell id="TiP5tz2ImqTwax-yuWbM-88" value="" style="endArrow=classic;html=1;strokeColor=#000000;fontColor=#FFFFFF;exitX=0.75;exitY=1;exitDx=0;exitDy=0;entryX=0.5;entryY=0;entryDx=0;entryDy=0;strokeWidth=4;" parent="1" source="TiP5tz2ImqTwax-yuWbM-86" target="TiP5tz2ImqTwax-yuWbM-82" edge="1">
          <mxGeometry width="50" height="50" relative="1" as="geometry">
            <mxPoint x="915" y="780" as="sourcePoint"/>
            <mxPoint x="965" y="730" as="targetPoint"/>
          </mxGeometry>
        </mxCell>
        <mxCell id="TiP5tz2ImqTwax-yuWbM-90" value="" style="endArrow=classic;html=1;strokeColor=#000000;fontColor=#FFFFFF;exitX=0.25;exitY=1;exitDx=0;exitDy=0;entryX=0.5;entryY=0;entryDx=0;entryDy=0;strokeWidth=4;" parent="1" source="TiP5tz2ImqTwax-yuWbM-86" edge="1">
          <mxGeometry width="50" height="50" relative="1" as="geometry">
            <mxPoint x="715" y="780" as="sourcePoint"/>
            <mxPoint x="565" y="830" as="targetPoint"/>
          </mxGeometry>
        </mxCell>
        <mxCell id="TiP5tz2ImqTwax-yuWbM-94" value="" style="group" parent="1" vertex="1" connectable="0">
          <mxGeometry x="505" y="830" width="120" height="60" as="geometry"/>
        </mxCell>
        <mxCell id="TiP5tz2ImqTwax-yuWbM-95" value="&lt;font style=&quot;font-size: 16px&quot;&gt;[0,3]&lt;br&gt;&lt;br&gt;3&lt;br&gt;&lt;/font&gt;" style="rounded=0;whiteSpace=wrap;html=1;fillColor=#E51400;fontColor=#FFFFFF;" parent="TiP5tz2ImqTwax-yuWbM-94" vertex="1">
          <mxGeometry width="120" height="60" as="geometry"/>
        </mxCell>
        <mxCell id="TiP5tz2ImqTwax-yuWbM-96" value="" style="endArrow=none;html=1;strokeColor=#FFFFFF;fontColor=#FFFFFF;entryX=1;entryY=0.5;entryDx=0;entryDy=0;" parent="TiP5tz2ImqTwax-yuWbM-94" target="TiP5tz2ImqTwax-yuWbM-95" edge="1">
          <mxGeometry width="50" height="50" relative="1" as="geometry">
            <mxPoint y="30" as="sourcePoint"/>
            <mxPoint x="-180" y="-20" as="targetPoint"/>
          </mxGeometry>
        </mxCell>
        <mxCell id="TiP5tz2ImqTwax-yuWbM-97" value="" style="group;fillColor=#e51400;strokeColor=#B20000;fontColor=#ffffff;" parent="1" vertex="1" connectable="0">
          <mxGeometry x="205" y="1370" width="120" height="60" as="geometry"/>
        </mxCell>
        <mxCell id="TiP5tz2ImqTwax-yuWbM-98" value="&lt;font style=&quot;font-size: 16px&quot;&gt;[6,10]&lt;br&gt;&lt;br&gt;10&lt;br&gt;&lt;/font&gt;" style="rounded=0;whiteSpace=wrap;html=1;fillColor=#e51400;fontColor=#ffffff;strokeColor=#B20000;" parent="TiP5tz2ImqTwax-yuWbM-97" vertex="1">
          <mxGeometry width="120" height="60" as="geometry"/>
        </mxCell>
        <mxCell id="TiP5tz2ImqTwax-yuWbM-99" value="" style="endArrow=none;html=1;strokeColor=#FFFFFF;fontColor=#FFFFFF;entryX=1;entryY=0.5;entryDx=0;entryDy=0;" parent="TiP5tz2ImqTwax-yuWbM-97" target="TiP5tz2ImqTwax-yuWbM-98" edge="1">
          <mxGeometry width="50" height="50" relative="1" as="geometry">
            <mxPoint y="30" as="sourcePoint"/>
            <mxPoint x="-180" y="-20" as="targetPoint"/>
          </mxGeometry>
        </mxCell>
        <mxCell id="TiP5tz2ImqTwax-yuWbM-100" value="" style="group" parent="1" vertex="1" connectable="0">
          <mxGeometry x="135" y="1250" width="120" height="60" as="geometry"/>
        </mxCell>
        <mxCell id="TiP5tz2ImqTwax-yuWbM-101" value="" style="group" parent="TiP5tz2ImqTwax-yuWbM-100" vertex="1" connectable="0">
          <mxGeometry width="120" height="60" as="geometry"/>
        </mxCell>
        <mxCell id="TiP5tz2ImqTwax-yuWbM-102" value="&lt;font style=&quot;font-size: 16px&quot;&gt;[5,8]&lt;br&gt;&lt;br&gt;10&lt;br&gt;&lt;/font&gt;" style="rounded=0;whiteSpace=wrap;html=1;fillColor=#000000;fontColor=#FFFFFF;" parent="TiP5tz2ImqTwax-yuWbM-101" vertex="1">
          <mxGeometry width="120" height="60" as="geometry"/>
        </mxCell>
        <mxCell id="TiP5tz2ImqTwax-yuWbM-103" value="" style="endArrow=none;html=1;strokeColor=#FFFFFF;fontColor=#FFFFFF;exitX=0;exitY=0.5;exitDx=0;exitDy=0;entryX=1;entryY=0.5;entryDx=0;entryDy=0;" parent="TiP5tz2ImqTwax-yuWbM-101" source="TiP5tz2ImqTwax-yuWbM-102" target="TiP5tz2ImqTwax-yuWbM-102" edge="1">
          <mxGeometry width="50" height="50" relative="1" as="geometry">
            <mxPoint x="-230" y="20" as="sourcePoint"/>
            <mxPoint x="-180" y="-30" as="targetPoint"/>
          </mxGeometry>
        </mxCell>
        <mxCell id="TiP5tz2ImqTwax-yuWbM-104" value="" style="endArrow=classic;html=1;strokeColor=#000000;fontColor=#FFFFFF;exitX=0.75;exitY=1;exitDx=0;exitDy=0;entryX=0.5;entryY=0;entryDx=0;entryDy=0;strokeWidth=4;" parent="1" source="TiP5tz2ImqTwax-yuWbM-102" target="TiP5tz2ImqTwax-yuWbM-98" edge="1">
          <mxGeometry width="50" height="50" relative="1" as="geometry">
            <mxPoint x="435" y="1320" as="sourcePoint"/>
            <mxPoint x="485" y="1270" as="targetPoint"/>
          </mxGeometry>
        </mxCell>
        <mxCell id="TiP5tz2ImqTwax-yuWbM-105" value="" style="endArrow=classic;html=1;strokeColor=#000000;fontColor=#FFFFFF;exitX=0.25;exitY=1;exitDx=0;exitDy=0;entryX=0.5;entryY=0;entryDx=0;entryDy=0;strokeWidth=4;" parent="1" source="TiP5tz2ImqTwax-yuWbM-102" edge="1">
          <mxGeometry width="50" height="50" relative="1" as="geometry">
            <mxPoint x="235" y="1320" as="sourcePoint"/>
            <mxPoint x="85" y="1370" as="targetPoint"/>
          </mxGeometry>
        </mxCell>
        <mxCell id="TiP5tz2ImqTwax-yuWbM-106" value="" style="group" parent="1" vertex="1" connectable="0">
          <mxGeometry x="25" y="1370" width="120" height="60" as="geometry"/>
        </mxCell>
        <mxCell id="TiP5tz2ImqTwax-yuWbM-107" value="&lt;font style=&quot;font-size: 16px&quot;&gt;[0,3]&lt;br&gt;&lt;br&gt;3&lt;br&gt;&lt;/font&gt;" style="rounded=0;whiteSpace=wrap;html=1;fillColor=#E51400;fontColor=#FFFFFF;" parent="TiP5tz2ImqTwax-yuWbM-106" vertex="1">
          <mxGeometry width="120" height="60" as="geometry"/>
        </mxCell>
        <mxCell id="TiP5tz2ImqTwax-yuWbM-108" value="" style="endArrow=none;html=1;strokeColor=#FFFFFF;fontColor=#FFFFFF;entryX=1;entryY=0.5;entryDx=0;entryDy=0;" parent="TiP5tz2ImqTwax-yuWbM-106" target="TiP5tz2ImqTwax-yuWbM-107" edge="1">
          <mxGeometry width="50" height="50" relative="1" as="geometry">
            <mxPoint y="30" as="sourcePoint"/>
            <mxPoint x="-180" y="-20" as="targetPoint"/>
          </mxGeometry>
        </mxCell>
        <mxCell id="TiP5tz2ImqTwax-yuWbM-112" value="" style="group" parent="1" vertex="1" connectable="0">
          <mxGeometry x="275" y="1510" width="120" height="60" as="geometry"/>
        </mxCell>
        <mxCell id="TiP5tz2ImqTwax-yuWbM-113" value="&lt;font style=&quot;font-size: 16px&quot;&gt;[8,9]&lt;br&gt;&lt;br&gt;9&lt;br&gt;&lt;/font&gt;" style="rounded=0;whiteSpace=wrap;html=1;fillColor=#E51400;fontColor=#FFFFFF;" parent="TiP5tz2ImqTwax-yuWbM-112" vertex="1">
          <mxGeometry width="120" height="60" as="geometry"/>
        </mxCell>
        <mxCell id="TiP5tz2ImqTwax-yuWbM-114" value="" style="endArrow=none;html=1;strokeColor=#FFFFFF;fontColor=#FFFFFF;entryX=1;entryY=0.5;entryDx=0;entryDy=0;" parent="TiP5tz2ImqTwax-yuWbM-112" target="TiP5tz2ImqTwax-yuWbM-113" edge="1">
          <mxGeometry width="50" height="50" relative="1" as="geometry">
            <mxPoint y="30" as="sourcePoint"/>
            <mxPoint x="-180" y="-20" as="targetPoint"/>
          </mxGeometry>
        </mxCell>
        <mxCell id="TiP5tz2ImqTwax-yuWbM-115" value="" style="endArrow=classic;html=1;strokeColor=#000000;fontColor=#FFFFFF;exitX=0.5;exitY=1;exitDx=0;exitDy=0;entryX=0.5;entryY=0;entryDx=0;entryDy=0;strokeWidth=4;" parent="1" source="TiP5tz2ImqTwax-yuWbM-98" target="TiP5tz2ImqTwax-yuWbM-113" edge="1">
          <mxGeometry width="50" height="50" relative="1" as="geometry">
            <mxPoint x="235" y="1320" as="sourcePoint"/>
            <mxPoint x="275" y="1380" as="targetPoint"/>
          </mxGeometry>
        </mxCell>
        <mxCell id="TiP5tz2ImqTwax-yuWbM-132" value="" style="group;fillColor=#e51400;strokeColor=#B20000;fontColor=#ffffff;" parent="1" vertex="1" connectable="0">
          <mxGeometry x="635" y="1370" width="120" height="60" as="geometry"/>
        </mxCell>
        <mxCell id="TiP5tz2ImqTwax-yuWbM-133" value="&lt;font style=&quot;font-size: 16px&quot;&gt;[6,10]&lt;br&gt;&lt;br&gt;10&lt;br&gt;&lt;/font&gt;" style="rounded=0;whiteSpace=wrap;html=1;fillColor=#000000;fontColor=#ffffff;strokeColor=#B20000;" parent="TiP5tz2ImqTwax-yuWbM-132" vertex="1">
          <mxGeometry width="120" height="60" as="geometry"/>
        </mxCell>
        <mxCell id="TiP5tz2ImqTwax-yuWbM-134" value="" style="endArrow=none;html=1;strokeColor=#FFFFFF;fontColor=#FFFFFF;entryX=1;entryY=0.5;entryDx=0;entryDy=0;" parent="TiP5tz2ImqTwax-yuWbM-132" target="TiP5tz2ImqTwax-yuWbM-133" edge="1">
          <mxGeometry width="50" height="50" relative="1" as="geometry">
            <mxPoint y="30" as="sourcePoint"/>
            <mxPoint x="-180" y="-20" as="targetPoint"/>
          </mxGeometry>
        </mxCell>
        <mxCell id="TiP5tz2ImqTwax-yuWbM-135" value="" style="group" parent="1" vertex="1" connectable="0">
          <mxGeometry x="565" y="1250" width="120" height="60" as="geometry"/>
        </mxCell>
        <mxCell id="TiP5tz2ImqTwax-yuWbM-136" value="" style="group" parent="TiP5tz2ImqTwax-yuWbM-135" vertex="1" connectable="0">
          <mxGeometry width="120" height="60" as="geometry"/>
        </mxCell>
        <mxCell id="TiP5tz2ImqTwax-yuWbM-137" value="&lt;font style=&quot;font-size: 16px&quot;&gt;[5,8]&lt;br&gt;&lt;br&gt;10&lt;br&gt;&lt;/font&gt;" style="rounded=0;whiteSpace=wrap;html=1;fillColor=#E51400;fontColor=#FFFFFF;" parent="TiP5tz2ImqTwax-yuWbM-136" vertex="1">
          <mxGeometry width="120" height="60" as="geometry"/>
        </mxCell>
        <mxCell id="TiP5tz2ImqTwax-yuWbM-138" value="" style="endArrow=none;html=1;strokeColor=#FFFFFF;fontColor=#FFFFFF;exitX=0;exitY=0.5;exitDx=0;exitDy=0;entryX=1;entryY=0.5;entryDx=0;entryDy=0;" parent="TiP5tz2ImqTwax-yuWbM-136" source="TiP5tz2ImqTwax-yuWbM-137" target="TiP5tz2ImqTwax-yuWbM-137" edge="1">
          <mxGeometry width="50" height="50" relative="1" as="geometry">
            <mxPoint x="-230" y="20" as="sourcePoint"/>
            <mxPoint x="-180" y="-30" as="targetPoint"/>
          </mxGeometry>
        </mxCell>
        <mxCell id="TiP5tz2ImqTwax-yuWbM-139" value="" style="endArrow=classic;html=1;strokeColor=#000000;fontColor=#FFFFFF;exitX=0.75;exitY=1;exitDx=0;exitDy=0;entryX=0.5;entryY=0;entryDx=0;entryDy=0;strokeWidth=4;" parent="1" source="TiP5tz2ImqTwax-yuWbM-137" target="TiP5tz2ImqTwax-yuWbM-133" edge="1">
          <mxGeometry width="50" height="50" relative="1" as="geometry">
            <mxPoint x="865" y="1320" as="sourcePoint"/>
            <mxPoint x="915" y="1270" as="targetPoint"/>
          </mxGeometry>
        </mxCell>
        <mxCell id="TiP5tz2ImqTwax-yuWbM-140" value="" style="endArrow=classic;html=1;strokeColor=#000000;fontColor=#FFFFFF;exitX=0.25;exitY=1;exitDx=0;exitDy=0;entryX=0.5;entryY=0;entryDx=0;entryDy=0;strokeWidth=4;" parent="1" source="TiP5tz2ImqTwax-yuWbM-137" edge="1">
          <mxGeometry width="50" height="50" relative="1" as="geometry">
            <mxPoint x="665" y="1320" as="sourcePoint"/>
            <mxPoint x="515" y="1370" as="targetPoint"/>
          </mxGeometry>
        </mxCell>
        <mxCell id="TiP5tz2ImqTwax-yuWbM-141" value="" style="group" parent="1" vertex="1" connectable="0">
          <mxGeometry x="455" y="1370" width="120" height="60" as="geometry"/>
        </mxCell>
        <mxCell id="TiP5tz2ImqTwax-yuWbM-142" value="&lt;font style=&quot;font-size: 16px&quot;&gt;[0,3]&lt;br&gt;&lt;br&gt;3&lt;br&gt;&lt;/font&gt;" style="rounded=0;whiteSpace=wrap;html=1;fillColor=#000000;fontColor=#FFFFFF;" parent="TiP5tz2ImqTwax-yuWbM-141" vertex="1">
          <mxGeometry width="120" height="60" as="geometry"/>
        </mxCell>
        <mxCell id="TiP5tz2ImqTwax-yuWbM-143" value="" style="endArrow=none;html=1;strokeColor=#FFFFFF;fontColor=#FFFFFF;entryX=1;entryY=0.5;entryDx=0;entryDy=0;" parent="TiP5tz2ImqTwax-yuWbM-141" target="TiP5tz2ImqTwax-yuWbM-142" edge="1">
          <mxGeometry width="50" height="50" relative="1" as="geometry">
            <mxPoint y="30" as="sourcePoint"/>
            <mxPoint x="-180" y="-20" as="targetPoint"/>
          </mxGeometry>
        </mxCell>
        <mxCell id="TiP5tz2ImqTwax-yuWbM-144" value="" style="group" parent="1" vertex="1" connectable="0">
          <mxGeometry x="705" y="1510" width="120" height="60" as="geometry"/>
        </mxCell>
        <mxCell id="TiP5tz2ImqTwax-yuWbM-145" value="&lt;font style=&quot;font-size: 16px&quot;&gt;[8,9]&lt;br&gt;&lt;br&gt;9&lt;br&gt;&lt;/font&gt;" style="rounded=0;whiteSpace=wrap;html=1;fillColor=#E51400;fontColor=#FFFFFF;" parent="TiP5tz2ImqTwax-yuWbM-144" vertex="1">
          <mxGeometry width="120" height="60" as="geometry"/>
        </mxCell>
        <mxCell id="TiP5tz2ImqTwax-yuWbM-146" value="" style="endArrow=none;html=1;strokeColor=#FFFFFF;fontColor=#FFFFFF;entryX=1;entryY=0.5;entryDx=0;entryDy=0;" parent="TiP5tz2ImqTwax-yuWbM-144" target="TiP5tz2ImqTwax-yuWbM-145" edge="1">
          <mxGeometry width="50" height="50" relative="1" as="geometry">
            <mxPoint y="30" as="sourcePoint"/>
            <mxPoint x="-180" y="-20" as="targetPoint"/>
          </mxGeometry>
        </mxCell>
        <mxCell id="TiP5tz2ImqTwax-yuWbM-147" value="" style="endArrow=classic;html=1;strokeColor=#000000;fontColor=#FFFFFF;exitX=0.5;exitY=1;exitDx=0;exitDy=0;entryX=0.5;entryY=0;entryDx=0;entryDy=0;strokeWidth=4;" parent="1" source="TiP5tz2ImqTwax-yuWbM-133" target="TiP5tz2ImqTwax-yuWbM-145" edge="1">
          <mxGeometry width="50" height="50" relative="1" as="geometry">
            <mxPoint x="665" y="1320" as="sourcePoint"/>
            <mxPoint x="705" y="1380" as="targetPoint"/>
          </mxGeometry>
        </mxCell>
        <mxCell id="TiP5tz2ImqTwax-yuWbM-148" value="" style="group;fillColor=#e51400;strokeColor=#B20000;fontColor=#ffffff;" parent="1" vertex="1" connectable="0">
          <mxGeometry x="615" y="1780" width="120" height="60" as="geometry"/>
        </mxCell>
        <mxCell id="TiP5tz2ImqTwax-yuWbM-149" value="&lt;font style=&quot;font-size: 16px&quot;&gt;[6,10]&lt;br&gt;&lt;br&gt;10&lt;br&gt;&lt;/font&gt;" style="rounded=0;whiteSpace=wrap;html=1;fillColor=#000000;fontColor=#ffffff;strokeColor=#B20000;" parent="TiP5tz2ImqTwax-yuWbM-148" vertex="1">
          <mxGeometry width="120" height="60" as="geometry"/>
        </mxCell>
        <mxCell id="TiP5tz2ImqTwax-yuWbM-150" value="" style="endArrow=none;html=1;strokeColor=#FFFFFF;fontColor=#FFFFFF;entryX=1;entryY=0.5;entryDx=0;entryDy=0;" parent="TiP5tz2ImqTwax-yuWbM-148" target="TiP5tz2ImqTwax-yuWbM-149" edge="1">
          <mxGeometry width="50" height="50" relative="1" as="geometry">
            <mxPoint y="30" as="sourcePoint"/>
            <mxPoint x="-180" y="-20" as="targetPoint"/>
          </mxGeometry>
        </mxCell>
        <mxCell id="TiP5tz2ImqTwax-yuWbM-151" value="" style="group" parent="1" vertex="1" connectable="0">
          <mxGeometry x="545" y="1660" width="120" height="60" as="geometry"/>
        </mxCell>
        <mxCell id="TiP5tz2ImqTwax-yuWbM-152" value="" style="group" parent="TiP5tz2ImqTwax-yuWbM-151" vertex="1" connectable="0">
          <mxGeometry width="120" height="60" as="geometry"/>
        </mxCell>
        <mxCell id="TiP5tz2ImqTwax-yuWbM-153" value="&lt;font style=&quot;font-size: 16px&quot;&gt;[5,8]&lt;br&gt;&lt;br&gt;10&lt;br&gt;&lt;/font&gt;" style="rounded=0;whiteSpace=wrap;html=1;fillColor=#000000;fontColor=#FFFFFF;" parent="TiP5tz2ImqTwax-yuWbM-152" vertex="1">
          <mxGeometry width="120" height="60" as="geometry"/>
        </mxCell>
        <mxCell id="TiP5tz2ImqTwax-yuWbM-154" value="" style="endArrow=none;html=1;strokeColor=#FFFFFF;fontColor=#FFFFFF;exitX=0;exitY=0.5;exitDx=0;exitDy=0;entryX=1;entryY=0.5;entryDx=0;entryDy=0;" parent="TiP5tz2ImqTwax-yuWbM-152" source="TiP5tz2ImqTwax-yuWbM-153" target="TiP5tz2ImqTwax-yuWbM-153" edge="1">
          <mxGeometry width="50" height="50" relative="1" as="geometry">
            <mxPoint x="-230" y="20" as="sourcePoint"/>
            <mxPoint x="-180" y="-30" as="targetPoint"/>
          </mxGeometry>
        </mxCell>
        <mxCell id="TiP5tz2ImqTwax-yuWbM-155" value="" style="endArrow=classic;html=1;strokeColor=#000000;fontColor=#FFFFFF;exitX=0.75;exitY=1;exitDx=0;exitDy=0;entryX=0.5;entryY=0;entryDx=0;entryDy=0;strokeWidth=4;" parent="1" source="TiP5tz2ImqTwax-yuWbM-153" target="TiP5tz2ImqTwax-yuWbM-149" edge="1">
          <mxGeometry width="50" height="50" relative="1" as="geometry">
            <mxPoint x="845" y="1730" as="sourcePoint"/>
            <mxPoint x="895" y="1680" as="targetPoint"/>
          </mxGeometry>
        </mxCell>
        <mxCell id="TiP5tz2ImqTwax-yuWbM-156" value="" style="endArrow=classic;html=1;strokeColor=#000000;fontColor=#FFFFFF;exitX=0.25;exitY=1;exitDx=0;exitDy=0;entryX=0.5;entryY=0;entryDx=0;entryDy=0;strokeWidth=4;" parent="1" source="TiP5tz2ImqTwax-yuWbM-153" edge="1">
          <mxGeometry width="50" height="50" relative="1" as="geometry">
            <mxPoint x="645" y="1730" as="sourcePoint"/>
            <mxPoint x="495" y="1780" as="targetPoint"/>
          </mxGeometry>
        </mxCell>
        <mxCell id="TiP5tz2ImqTwax-yuWbM-157" value="" style="group" parent="1" vertex="1" connectable="0">
          <mxGeometry x="435" y="1780" width="120" height="60" as="geometry"/>
        </mxCell>
        <mxCell id="TiP5tz2ImqTwax-yuWbM-158" value="&lt;font style=&quot;font-size: 16px&quot;&gt;[0,3]&lt;br&gt;&lt;br&gt;3&lt;br&gt;&lt;/font&gt;" style="rounded=0;whiteSpace=wrap;html=1;fillColor=#000000;fontColor=#FFFFFF;" parent="TiP5tz2ImqTwax-yuWbM-157" vertex="1">
          <mxGeometry width="120" height="60" as="geometry"/>
        </mxCell>
        <mxCell id="TiP5tz2ImqTwax-yuWbM-159" value="" style="endArrow=none;html=1;strokeColor=#FFFFFF;fontColor=#FFFFFF;entryX=1;entryY=0.5;entryDx=0;entryDy=0;" parent="TiP5tz2ImqTwax-yuWbM-157" target="TiP5tz2ImqTwax-yuWbM-158" edge="1">
          <mxGeometry width="50" height="50" relative="1" as="geometry">
            <mxPoint y="30" as="sourcePoint"/>
            <mxPoint x="-180" y="-20" as="targetPoint"/>
          </mxGeometry>
        </mxCell>
        <mxCell id="TiP5tz2ImqTwax-yuWbM-160" value="" style="group" parent="1" vertex="1" connectable="0">
          <mxGeometry x="685" y="1920" width="120" height="60" as="geometry"/>
        </mxCell>
        <mxCell id="TiP5tz2ImqTwax-yuWbM-161" value="&lt;font style=&quot;font-size: 16px&quot;&gt;[8,9]&lt;br&gt;&lt;br&gt;9&lt;br&gt;&lt;/font&gt;" style="rounded=0;whiteSpace=wrap;html=1;fillColor=#E51400;fontColor=#FFFFFF;" parent="TiP5tz2ImqTwax-yuWbM-160" vertex="1">
          <mxGeometry width="120" height="60" as="geometry"/>
        </mxCell>
        <mxCell id="TiP5tz2ImqTwax-yuWbM-162" value="" style="endArrow=none;html=1;strokeColor=#FFFFFF;fontColor=#FFFFFF;entryX=1;entryY=0.5;entryDx=0;entryDy=0;" parent="TiP5tz2ImqTwax-yuWbM-160" target="TiP5tz2ImqTwax-yuWbM-161" edge="1">
          <mxGeometry width="50" height="50" relative="1" as="geometry">
            <mxPoint y="30" as="sourcePoint"/>
            <mxPoint x="-180" y="-20" as="targetPoint"/>
          </mxGeometry>
        </mxCell>
        <mxCell id="TiP5tz2ImqTwax-yuWbM-163" value="" style="endArrow=classic;html=1;strokeColor=#000000;fontColor=#FFFFFF;exitX=0.5;exitY=1;exitDx=0;exitDy=0;entryX=0.5;entryY=0;entryDx=0;entryDy=0;strokeWidth=4;" parent="1" source="TiP5tz2ImqTwax-yuWbM-149" target="TiP5tz2ImqTwax-yuWbM-161" edge="1">
          <mxGeometry width="50" height="50" relative="1" as="geometry">
            <mxPoint x="645" y="1730" as="sourcePoint"/>
            <mxPoint x="685" y="1790" as="targetPoint"/>
          </mxGeometry>
        </mxCell>
        <mxCell id="TiP5tz2ImqTwax-yuWbM-164" value="" style="group;fillColor=#e51400;strokeColor=#B20000;fontColor=#ffffff;" parent="1" vertex="1" connectable="0">
          <mxGeometry x="215" y="2475" width="120" height="60" as="geometry"/>
        </mxCell>
        <mxCell id="TiP5tz2ImqTwax-yuWbM-165" value="&lt;font style=&quot;font-size: 16px&quot;&gt;[6,10]&lt;br&gt;&lt;br&gt;23&lt;br&gt;&lt;/font&gt;" style="rounded=0;whiteSpace=wrap;html=1;fillColor=#000000;fontColor=#ffffff;strokeColor=#B20000;" parent="TiP5tz2ImqTwax-yuWbM-164" vertex="1">
          <mxGeometry width="120" height="60" as="geometry"/>
        </mxCell>
        <mxCell id="TiP5tz2ImqTwax-yuWbM-166" value="" style="endArrow=none;html=1;strokeColor=#FFFFFF;fontColor=#FFFFFF;entryX=1;entryY=0.5;entryDx=0;entryDy=0;" parent="TiP5tz2ImqTwax-yuWbM-164" target="TiP5tz2ImqTwax-yuWbM-165" edge="1">
          <mxGeometry width="50" height="50" relative="1" as="geometry">
            <mxPoint y="30" as="sourcePoint"/>
            <mxPoint x="-180" y="-20" as="targetPoint"/>
          </mxGeometry>
        </mxCell>
        <mxCell id="TiP5tz2ImqTwax-yuWbM-167" value="" style="group" parent="1" vertex="1" connectable="0">
          <mxGeometry x="145" y="2355" width="120" height="60" as="geometry"/>
        </mxCell>
        <mxCell id="TiP5tz2ImqTwax-yuWbM-168" value="" style="group" parent="TiP5tz2ImqTwax-yuWbM-167" vertex="1" connectable="0">
          <mxGeometry width="120" height="60" as="geometry"/>
        </mxCell>
        <mxCell id="TiP5tz2ImqTwax-yuWbM-169" value="&lt;font style=&quot;font-size: 16px&quot;&gt;[5,8]&lt;br&gt;&lt;br&gt;23&lt;br&gt;&lt;/font&gt;" style="rounded=0;whiteSpace=wrap;html=1;fillColor=#000000;fontColor=#FFFFFF;" parent="TiP5tz2ImqTwax-yuWbM-168" vertex="1">
          <mxGeometry width="120" height="60" as="geometry"/>
        </mxCell>
        <mxCell id="TiP5tz2ImqTwax-yuWbM-170" value="" style="endArrow=none;html=1;strokeColor=#FFFFFF;fontColor=#FFFFFF;exitX=0;exitY=0.5;exitDx=0;exitDy=0;entryX=1;entryY=0.5;entryDx=0;entryDy=0;" parent="TiP5tz2ImqTwax-yuWbM-168" source="TiP5tz2ImqTwax-yuWbM-169" target="TiP5tz2ImqTwax-yuWbM-169" edge="1">
          <mxGeometry width="50" height="50" relative="1" as="geometry">
            <mxPoint x="-230" y="20" as="sourcePoint"/>
            <mxPoint x="-180" y="-30" as="targetPoint"/>
          </mxGeometry>
        </mxCell>
        <mxCell id="TiP5tz2ImqTwax-yuWbM-171" value="" style="endArrow=classic;html=1;strokeColor=#000000;fontColor=#FFFFFF;exitX=0.75;exitY=1;exitDx=0;exitDy=0;entryX=0.5;entryY=0;entryDx=0;entryDy=0;strokeWidth=4;" parent="1" source="TiP5tz2ImqTwax-yuWbM-169" target="TiP5tz2ImqTwax-yuWbM-165" edge="1">
          <mxGeometry width="50" height="50" relative="1" as="geometry">
            <mxPoint x="445" y="2425" as="sourcePoint"/>
            <mxPoint x="495" y="2375" as="targetPoint"/>
          </mxGeometry>
        </mxCell>
        <mxCell id="TiP5tz2ImqTwax-yuWbM-172" value="" style="endArrow=classic;html=1;strokeColor=#000000;fontColor=#FFFFFF;exitX=0.25;exitY=1;exitDx=0;exitDy=0;entryX=0.5;entryY=0;entryDx=0;entryDy=0;strokeWidth=4;" parent="1" source="TiP5tz2ImqTwax-yuWbM-169" edge="1">
          <mxGeometry width="50" height="50" relative="1" as="geometry">
            <mxPoint x="245" y="2425" as="sourcePoint"/>
            <mxPoint x="95" y="2475" as="targetPoint"/>
          </mxGeometry>
        </mxCell>
        <mxCell id="TiP5tz2ImqTwax-yuWbM-173" value="" style="group" parent="1" vertex="1" connectable="0">
          <mxGeometry x="35" y="2475" width="120" height="60" as="geometry"/>
        </mxCell>
        <mxCell id="TiP5tz2ImqTwax-yuWbM-174" value="&lt;font style=&quot;font-size: 16px&quot;&gt;[0,3]&lt;br&gt;&lt;br&gt;3&lt;br&gt;&lt;/font&gt;" style="rounded=0;whiteSpace=wrap;html=1;fillColor=#000000;fontColor=#FFFFFF;" parent="TiP5tz2ImqTwax-yuWbM-173" vertex="1">
          <mxGeometry width="120" height="60" as="geometry"/>
        </mxCell>
        <mxCell id="TiP5tz2ImqTwax-yuWbM-175" value="" style="endArrow=none;html=1;strokeColor=#FFFFFF;fontColor=#FFFFFF;entryX=1;entryY=0.5;entryDx=0;entryDy=0;" parent="TiP5tz2ImqTwax-yuWbM-173" target="TiP5tz2ImqTwax-yuWbM-174" edge="1">
          <mxGeometry width="50" height="50" relative="1" as="geometry">
            <mxPoint y="30" as="sourcePoint"/>
            <mxPoint x="-180" y="-20" as="targetPoint"/>
          </mxGeometry>
        </mxCell>
        <mxCell id="TiP5tz2ImqTwax-yuWbM-176" value="" style="group" parent="1" vertex="1" connectable="0">
          <mxGeometry x="285" y="2615" width="120" height="60" as="geometry"/>
        </mxCell>
        <mxCell id="TiP5tz2ImqTwax-yuWbM-177" value="&lt;font style=&quot;font-size: 16px&quot;&gt;[8,9]&lt;br&gt;&lt;br&gt;23&lt;br&gt;&lt;/font&gt;" style="rounded=0;whiteSpace=wrap;html=1;fillColor=#E51400;fontColor=#FFFFFF;" parent="TiP5tz2ImqTwax-yuWbM-176" vertex="1">
          <mxGeometry width="120" height="60" as="geometry"/>
        </mxCell>
        <mxCell id="TiP5tz2ImqTwax-yuWbM-178" value="" style="endArrow=none;html=1;strokeColor=#FFFFFF;fontColor=#FFFFFF;entryX=1;entryY=0.5;entryDx=0;entryDy=0;" parent="TiP5tz2ImqTwax-yuWbM-176" target="TiP5tz2ImqTwax-yuWbM-177" edge="1">
          <mxGeometry width="50" height="50" relative="1" as="geometry">
            <mxPoint y="30" as="sourcePoint"/>
            <mxPoint x="-180" y="-20" as="targetPoint"/>
          </mxGeometry>
        </mxCell>
        <mxCell id="TiP5tz2ImqTwax-yuWbM-222" value="" style="shape=flexArrow;endArrow=classic;html=1;strokeColor=#000000;strokeWidth=4;fontColor=#FFFFFF;" parent="TiP5tz2ImqTwax-yuWbM-176" edge="1">
          <mxGeometry width="50" height="50" relative="1" as="geometry">
            <mxPoint x="-120" y="29.230000000000018" as="sourcePoint"/>
            <mxPoint x="-120" y="250" as="targetPoint"/>
          </mxGeometry>
        </mxCell>
        <mxCell id="TiP5tz2ImqTwax-yuWbM-179" value="" style="endArrow=classic;html=1;strokeColor=#000000;fontColor=#FFFFFF;exitX=0.5;exitY=1;exitDx=0;exitDy=0;entryX=0.5;entryY=0;entryDx=0;entryDy=0;strokeWidth=4;" parent="1" source="TiP5tz2ImqTwax-yuWbM-165" target="TiP5tz2ImqTwax-yuWbM-177" edge="1">
          <mxGeometry width="50" height="50" relative="1" as="geometry">
            <mxPoint x="245" y="2425" as="sourcePoint"/>
            <mxPoint x="285" y="2485" as="targetPoint"/>
          </mxGeometry>
        </mxCell>
        <mxCell id="TiP5tz2ImqTwax-yuWbM-180" value="" style="endArrow=classic;html=1;strokeColor=#000000;fontColor=#FFFFFF;exitX=0.5;exitY=1;exitDx=0;exitDy=0;entryX=0.5;entryY=0;entryDx=0;entryDy=0;strokeWidth=4;" parent="1" source="TiP5tz2ImqTwax-yuWbM-177" target="TiP5tz2ImqTwax-yuWbM-182" edge="1">
          <mxGeometry width="50" height="50" relative="1" as="geometry">
            <mxPoint x="285" y="2545" as="sourcePoint"/>
            <mxPoint x="355" y="2625" as="targetPoint"/>
          </mxGeometry>
        </mxCell>
        <mxCell id="TiP5tz2ImqTwax-yuWbM-181" value="" style="group" parent="1" vertex="1" connectable="0">
          <mxGeometry x="365" y="2735" width="120" height="60" as="geometry"/>
        </mxCell>
        <mxCell id="TiP5tz2ImqTwax-yuWbM-182" value="&lt;font style=&quot;font-size: 16px&quot;&gt;[15,23]&lt;br&gt;&lt;br&gt;23&lt;br&gt;&lt;/font&gt;" style="rounded=0;whiteSpace=wrap;html=1;fillColor=#E51400;fontColor=#FFFFFF;" parent="TiP5tz2ImqTwax-yuWbM-181" vertex="1">
          <mxGeometry width="120" height="60" as="geometry"/>
        </mxCell>
        <mxCell id="TiP5tz2ImqTwax-yuWbM-183" value="" style="endArrow=none;html=1;strokeColor=#FFFFFF;fontColor=#FFFFFF;entryX=1;entryY=0.5;entryDx=0;entryDy=0;" parent="TiP5tz2ImqTwax-yuWbM-181" target="TiP5tz2ImqTwax-yuWbM-182" edge="1">
          <mxGeometry width="50" height="50" relative="1" as="geometry">
            <mxPoint y="30" as="sourcePoint"/>
            <mxPoint x="-180" y="-20" as="targetPoint"/>
          </mxGeometry>
        </mxCell>
        <mxCell id="TiP5tz2ImqTwax-yuWbM-187" value="" style="group" parent="1" vertex="1" connectable="0">
          <mxGeometry x="205" y="2925" width="120" height="60" as="geometry"/>
        </mxCell>
        <mxCell id="TiP5tz2ImqTwax-yuWbM-188" value="" style="group" parent="TiP5tz2ImqTwax-yuWbM-187" vertex="1" connectable="0">
          <mxGeometry width="120" height="60" as="geometry"/>
        </mxCell>
        <mxCell id="TiP5tz2ImqTwax-yuWbM-189" value="&lt;font style=&quot;font-size: 16px&quot;&gt;[5,8]&lt;br&gt;&lt;br&gt;23&lt;br&gt;&lt;/font&gt;" style="rounded=0;whiteSpace=wrap;html=1;fillColor=#000000;fontColor=#FFFFFF;" parent="TiP5tz2ImqTwax-yuWbM-188" vertex="1">
          <mxGeometry width="120" height="60" as="geometry"/>
        </mxCell>
        <mxCell id="TiP5tz2ImqTwax-yuWbM-190" value="" style="endArrow=none;html=1;strokeColor=#FFFFFF;fontColor=#FFFFFF;exitX=0;exitY=0.5;exitDx=0;exitDy=0;entryX=1;entryY=0.5;entryDx=0;entryDy=0;" parent="TiP5tz2ImqTwax-yuWbM-188" source="TiP5tz2ImqTwax-yuWbM-189" target="TiP5tz2ImqTwax-yuWbM-189" edge="1">
          <mxGeometry width="50" height="50" relative="1" as="geometry">
            <mxPoint x="-230" y="20" as="sourcePoint"/>
            <mxPoint x="-180" y="-30" as="targetPoint"/>
          </mxGeometry>
        </mxCell>
        <mxCell id="TiP5tz2ImqTwax-yuWbM-191" value="" style="endArrow=classic;html=1;strokeColor=#000000;fontColor=#FFFFFF;exitX=0.75;exitY=1;exitDx=0;exitDy=0;entryX=0.5;entryY=0;entryDx=0;entryDy=0;strokeWidth=4;" parent="1" source="TiP5tz2ImqTwax-yuWbM-189" edge="1">
          <mxGeometry width="50" height="50" relative="1" as="geometry">
            <mxPoint x="505" y="2995" as="sourcePoint"/>
            <mxPoint x="335" y="3045" as="targetPoint"/>
          </mxGeometry>
        </mxCell>
        <mxCell id="TiP5tz2ImqTwax-yuWbM-192" value="" style="endArrow=classic;html=1;strokeColor=#000000;fontColor=#FFFFFF;exitX=0.25;exitY=1;exitDx=0;exitDy=0;entryX=0.5;entryY=0;entryDx=0;entryDy=0;strokeWidth=4;" parent="1" source="TiP5tz2ImqTwax-yuWbM-189" edge="1">
          <mxGeometry width="50" height="50" relative="1" as="geometry">
            <mxPoint x="305" y="2995" as="sourcePoint"/>
            <mxPoint x="155" y="3045" as="targetPoint"/>
          </mxGeometry>
        </mxCell>
        <mxCell id="TiP5tz2ImqTwax-yuWbM-193" value="" style="group" parent="1" vertex="1" connectable="0">
          <mxGeometry x="95" y="3045" width="120" height="60" as="geometry"/>
        </mxCell>
        <mxCell id="TiP5tz2ImqTwax-yuWbM-194" value="&lt;font style=&quot;font-size: 16px&quot;&gt;[0,3]&lt;br&gt;&lt;br&gt;3&lt;br&gt;&lt;/font&gt;" style="rounded=0;whiteSpace=wrap;html=1;fillColor=#000000;fontColor=#FFFFFF;" parent="TiP5tz2ImqTwax-yuWbM-193" vertex="1">
          <mxGeometry width="120" height="60" as="geometry"/>
        </mxCell>
        <mxCell id="TiP5tz2ImqTwax-yuWbM-195" value="" style="endArrow=none;html=1;strokeColor=#FFFFFF;fontColor=#FFFFFF;entryX=1;entryY=0.5;entryDx=0;entryDy=0;" parent="TiP5tz2ImqTwax-yuWbM-193" target="TiP5tz2ImqTwax-yuWbM-194" edge="1">
          <mxGeometry width="50" height="50" relative="1" as="geometry">
            <mxPoint y="30" as="sourcePoint"/>
            <mxPoint x="-180" y="-20" as="targetPoint"/>
          </mxGeometry>
        </mxCell>
        <mxCell id="TiP5tz2ImqTwax-yuWbM-199" value="" style="endArrow=classic;html=1;strokeColor=#000000;fontColor=#FFFFFF;exitX=0.75;exitY=1;exitDx=0;exitDy=0;entryX=0.5;entryY=0;entryDx=0;entryDy=0;strokeWidth=4;" parent="1" source="TiP5tz2ImqTwax-yuWbM-208" target="TiP5tz2ImqTwax-yuWbM-211" edge="1">
          <mxGeometry width="50" height="50" relative="1" as="geometry">
            <mxPoint x="335" y="3105" as="sourcePoint"/>
            <mxPoint x="405" y="3185" as="targetPoint"/>
          </mxGeometry>
        </mxCell>
        <mxCell id="TiP5tz2ImqTwax-yuWbM-200" value="" style="endArrow=classic;html=1;strokeColor=#000000;fontColor=#FFFFFF;exitX=0.25;exitY=1;exitDx=0;exitDy=0;entryX=0.5;entryY=0;entryDx=0;entryDy=0;strokeWidth=4;" parent="1" source="TiP5tz2ImqTwax-yuWbM-208" target="TiP5tz2ImqTwax-yuWbM-205" edge="1">
          <mxGeometry width="50" height="50" relative="1" as="geometry">
            <mxPoint x="405" y="3245" as="sourcePoint"/>
            <mxPoint x="485" y="3305" as="targetPoint"/>
          </mxGeometry>
        </mxCell>
        <mxCell id="TiP5tz2ImqTwax-yuWbM-204" value="" style="group;fillColor=#E51400;strokeColor=#B20000;fontColor=#ffffff;" parent="1" vertex="1" connectable="0">
          <mxGeometry x="165" y="3185" width="120" height="60" as="geometry"/>
        </mxCell>
        <mxCell id="TiP5tz2ImqTwax-yuWbM-205" value="&lt;font style=&quot;font-size: 16px&quot;&gt;[6,10]&lt;br&gt;&lt;br&gt;10&lt;br&gt;&lt;/font&gt;" style="rounded=0;whiteSpace=wrap;html=1;fillColor=#E51400;fontColor=#ffffff;strokeColor=#B20000;" parent="TiP5tz2ImqTwax-yuWbM-204" vertex="1">
          <mxGeometry width="120" height="60" as="geometry"/>
        </mxCell>
        <mxCell id="TiP5tz2ImqTwax-yuWbM-206" value="" style="endArrow=none;html=1;strokeColor=#FFFFFF;fontColor=#FFFFFF;entryX=1;entryY=0.5;entryDx=0;entryDy=0;" parent="TiP5tz2ImqTwax-yuWbM-204" target="TiP5tz2ImqTwax-yuWbM-205" edge="1">
          <mxGeometry width="50" height="50" relative="1" as="geometry">
            <mxPoint y="30" as="sourcePoint"/>
            <mxPoint x="-180" y="-20" as="targetPoint"/>
          </mxGeometry>
        </mxCell>
        <mxCell id="TiP5tz2ImqTwax-yuWbM-207" value="" style="group" parent="1" vertex="1" connectable="0">
          <mxGeometry x="275" y="3045" width="120" height="60" as="geometry"/>
        </mxCell>
        <mxCell id="TiP5tz2ImqTwax-yuWbM-208" value="&lt;font style=&quot;font-size: 16px&quot;&gt;[8,9]&lt;br&gt;&lt;br&gt;23&lt;br&gt;&lt;/font&gt;" style="rounded=0;whiteSpace=wrap;html=1;fillColor=#000000;fontColor=#FFFFFF;" parent="TiP5tz2ImqTwax-yuWbM-207" vertex="1">
          <mxGeometry width="120" height="60" as="geometry"/>
        </mxCell>
        <mxCell id="TiP5tz2ImqTwax-yuWbM-209" value="" style="endArrow=none;html=1;strokeColor=#FFFFFF;fontColor=#FFFFFF;entryX=1;entryY=0.5;entryDx=0;entryDy=0;" parent="TiP5tz2ImqTwax-yuWbM-207" target="TiP5tz2ImqTwax-yuWbM-208" edge="1">
          <mxGeometry width="50" height="50" relative="1" as="geometry">
            <mxPoint y="30" as="sourcePoint"/>
            <mxPoint x="-180" y="-20" as="targetPoint"/>
          </mxGeometry>
        </mxCell>
        <mxCell id="TiP5tz2ImqTwax-yuWbM-210" value="" style="group" parent="1" vertex="1" connectable="0">
          <mxGeometry x="355" y="3185" width="120" height="60" as="geometry"/>
        </mxCell>
        <mxCell id="TiP5tz2ImqTwax-yuWbM-211" value="&lt;font style=&quot;font-size: 16px&quot;&gt;[15,23]&lt;br&gt;&lt;br&gt;23&lt;br&gt;&lt;/font&gt;" style="rounded=0;whiteSpace=wrap;html=1;fillColor=#E51400;fontColor=#FFFFFF;" parent="TiP5tz2ImqTwax-yuWbM-210" vertex="1">
          <mxGeometry width="120" height="60" as="geometry"/>
        </mxCell>
        <mxCell id="TiP5tz2ImqTwax-yuWbM-212" value="" style="endArrow=none;html=1;strokeColor=#FFFFFF;fontColor=#FFFFFF;entryX=1;entryY=0.5;entryDx=0;entryDy=0;" parent="TiP5tz2ImqTwax-yuWbM-210" target="TiP5tz2ImqTwax-yuWbM-211" edge="1">
          <mxGeometry width="50" height="50" relative="1" as="geometry">
            <mxPoint y="30" as="sourcePoint"/>
            <mxPoint x="-180" y="-20" as="targetPoint"/>
          </mxGeometry>
        </mxCell>
        <mxCell id="TiP5tz2ImqTwax-yuWbM-213" value="" style="endArrow=none;html=1;strokeColor=#000000;strokeWidth=4;fontColor=#FFFFFF;" parent="1" edge="1">
          <mxGeometry width="50" height="50" relative="1" as="geometry">
            <mxPoint x="10" y="200" as="sourcePoint"/>
            <mxPoint x="820" y="200" as="targetPoint"/>
          </mxGeometry>
        </mxCell>
        <mxCell id="TiP5tz2ImqTwax-yuWbM-214" value="" style="endArrow=none;html=1;strokeColor=#000000;strokeWidth=4;fontColor=#FFFFFF;" parent="1" edge="1">
          <mxGeometry width="50" height="50" relative="1" as="geometry">
            <mxPoint x="10" y="650" as="sourcePoint"/>
            <mxPoint x="825" y="650" as="targetPoint"/>
          </mxGeometry>
        </mxCell>
        <mxCell id="TiP5tz2ImqTwax-yuWbM-215" value="" style="endArrow=none;html=1;strokeColor=#000000;strokeWidth=4;fontColor=#FFFFFF;" parent="1" edge="1">
          <mxGeometry width="50" height="50" relative="1" as="geometry">
            <mxPoint x="20" y="1140" as="sourcePoint"/>
            <mxPoint x="845" y="1140" as="targetPoint"/>
          </mxGeometry>
        </mxCell>
        <mxCell id="TiP5tz2ImqTwax-yuWbM-216" value="" style="endArrow=none;html=1;strokeColor=#000000;strokeWidth=4;fontColor=#FFFFFF;" parent="1" edge="1">
          <mxGeometry width="50" height="50" relative="1" as="geometry">
            <mxPoint x="25" y="2255" as="sourcePoint"/>
            <mxPoint x="825" y="2255" as="targetPoint"/>
          </mxGeometry>
        </mxCell>
        <mxCell id="TiP5tz2ImqTwax-yuWbM-217" value="&lt;font color=&quot;#000000&quot;&gt;&lt;span style=&quot;font-size: 24px&quot;&gt;&lt;b&gt;INSERT [0,3]&lt;/b&gt;&lt;/span&gt;&lt;/font&gt;" style="text;html=1;strokeColor=none;fillColor=none;align=center;verticalAlign=middle;whiteSpace=wrap;rounded=0;fontColor=#FFFFFF;strokeWidth=4;" parent="1" vertex="1">
          <mxGeometry x="155" y="30" width="220" height="20" as="geometry"/>
        </mxCell>
        <mxCell id="TiP5tz2ImqTwax-yuWbM-218" value="&lt;font color=&quot;#000000&quot;&gt;&lt;span style=&quot;font-size: 24px&quot;&gt;&lt;b&gt;INSERT [5,8]&lt;/b&gt;&lt;/span&gt;&lt;/font&gt;" style="text;html=1;strokeColor=none;fillColor=none;align=center;verticalAlign=middle;whiteSpace=wrap;rounded=0;fontColor=#FFFFFF;strokeWidth=4;" parent="1" vertex="1">
          <mxGeometry x="40" y="310" width="220" height="20" as="geometry"/>
        </mxCell>
        <mxCell id="TiP5tz2ImqTwax-yuWbM-219" value="&lt;font color=&quot;#000000&quot;&gt;&lt;span style=&quot;font-size: 24px&quot;&gt;&lt;b&gt;INSERT [6,10]&lt;/b&gt;&lt;/span&gt;&lt;/font&gt;" style="text;html=1;strokeColor=none;fillColor=none;align=center;verticalAlign=middle;whiteSpace=wrap;rounded=0;fontColor=#FFFFFF;strokeWidth=4;" parent="1" vertex="1">
          <mxGeometry x="5" y="680" width="220" height="20" as="geometry"/>
        </mxCell>
        <mxCell id="TiP5tz2ImqTwax-yuWbM-220" value="&lt;font color=&quot;#000000&quot;&gt;&lt;span style=&quot;font-size: 24px&quot;&gt;&lt;b&gt;INSERT [8,9]&lt;/b&gt;&lt;/span&gt;&lt;/font&gt;" style="text;html=1;strokeColor=none;fillColor=none;align=center;verticalAlign=middle;whiteSpace=wrap;rounded=0;fontColor=#FFFFFF;strokeWidth=4;" parent="1" vertex="1">
          <mxGeometry x="25" y="1170" width="220" height="20" as="geometry"/>
        </mxCell>
        <mxCell id="TiP5tz2ImqTwax-yuWbM-221" value="&lt;font color=&quot;#000000&quot;&gt;&lt;span style=&quot;font-size: 24px&quot;&gt;&lt;b&gt;INSERT [15,23]&lt;/b&gt;&lt;/span&gt;&lt;/font&gt;" style="text;html=1;strokeColor=none;fillColor=none;align=center;verticalAlign=middle;whiteSpace=wrap;rounded=0;fontColor=#FFFFFF;strokeWidth=4;" parent="1" vertex="1">
          <mxGeometry x="25" y="2275" width="220" height="20" as="geometry"/>
        </mxCell>
        <mxCell id="TiP5tz2ImqTwax-yuWbM-223" value="" style="shape=flexArrow;endArrow=classic;html=1;strokeColor=#000000;strokeWidth=4;fontColor=#FFFFFF;" parent="1" edge="1">
          <mxGeometry width="50" height="50" relative="1" as="geometry">
            <mxPoint x="315" y="1320" as="sourcePoint"/>
            <mxPoint x="515" y="1320" as="targetPoint"/>
          </mxGeometry>
        </mxCell>
        <mxCell id="TiP5tz2ImqTwax-yuWbM-224" value="" style="shape=flexArrow;endArrow=classic;html=1;strokeColor=#000000;strokeWidth=4;fontColor=#FFFFFF;" parent="1" edge="1">
          <mxGeometry width="50" height="50" relative="1" as="geometry">
            <mxPoint x="585" y="1480" as="sourcePoint"/>
            <mxPoint x="585" y="1610" as="targetPoint"/>
          </mxGeometry>
        </mxCell>
        <mxCell id="TiP5tz2ImqTwax-yuWbM-225" value="" style="shape=flexArrow;endArrow=classic;html=1;strokeColor=#000000;strokeWidth=4;fontColor=#FFFFFF;" parent="1" edge="1">
          <mxGeometry width="50" height="50" relative="1" as="geometry">
            <mxPoint x="305" y="790" as="sourcePoint"/>
            <mxPoint x="505" y="790" as="targetPoint"/>
          </mxGeometry>
        </mxCell>
        <mxCell id="Js6P9yWE7aeRAIRvn81I-1" value="&lt;font color=&quot;#000000&quot;&gt;&lt;span style=&quot;font-size: 24px&quot;&gt;&lt;b&gt;3.（B）&lt;/b&gt;&lt;/span&gt;&lt;/font&gt;" style="text;html=1;strokeColor=none;fillColor=none;align=center;verticalAlign=middle;whiteSpace=wrap;rounded=0;fontColor=#FFFFFF;strokeWidth=4;" vertex="1" parent="1">
          <mxGeometry x="10" y="10" width="155" height="20" as="geometry"/>
        </mxCell>
      </root>
    </mxGraphModel>
  </diagram>
</mxfile>
